<?xml version="1.0" encoding="utf-8"?>
<!-- Generator: Adobe Illustrator 21.0.2, SVG Export Plug-In . SVG Version: 6.00 Build 0)  -->
<svg version="1.1" id="Layer_1" xmlns="http://www.w3.org/2000/svg" xmlns:xlink="http://www.w3.org/1999/xlink" x="0px" y="0px"
	 viewBox="0 0 38 39" style="enable-background:new 0 0 38 39;" xml:space="preserve">
<style type="text/css">
	.st0{fill:#802528;}
	.st1{fill:#FFFFFF;}
	.st2{fill:#B0B0B0;}
	.st3{fill:#C9C9C9;}
	.st4{fill-rule:evenodd;clip-rule:evenodd;fill:#C9C9C9;}
	.st5{fill:#D1D3D3;}
	.st6{fill:#969696;}
	.st7{fill:#231F20;}
	.st8{filter:url(#Adobe_OpacityMaskFilter);}
	.st9{fill:#4D4D4D;}
</style>
<g>
	<g>
		<circle class="st0" cx="19.1" cy="19.3" r="18.6"/>
	</g>
	<path class="st1" d="M20.4,19.3l7.9-7.9c0.4-0.4,0.4-0.9,0-1.3c-0.4-0.4-0.9-0.4-1.3,0L19.1,18l-7.9-7.9c-0.4-0.4-0.9-0.4-1.3,0
		c-0.4,0.4-0.4,0.9,0,1.3l7.9,7.9l-7.9,7.9c-0.4,0.4-0.4,0.9,0,1.3c0.2,0.2,0.4,0.3,0.6,0.3s0.5-0.1,0.6-0.3l7.9-7.9l7.9,7.9
		c0.2,0.2,0.4,0.3,0.6,0.3s0.5-0.1,0.6-0.3c0.4-0.4,0.4-0.9,0-1.3L20.4,19.3z"/>
</g>
</svg>
